<?xml version="1.0" encoding="utf-8"?>
<!-- Generator: Adobe Illustrator 24.1.0, SVG Export Plug-In . SVG Version: 6.00 Build 0)  -->
<svg version="1.1" id="Layer_2_1_" xmlns="http://www.w3.org/2000/svg" xmlns:xlink="http://www.w3.org/1999/xlink" x="0px" y="0px"
	 viewBox="0 0 64 64" style="enable-background:new 0 0 64 64;" xml:space="preserve">
<style type="text/css">
	.st0{fill:#FFFFFF;}
</style>
<g>
	<path class="st0" d="M56.8,44c-0.8-0.5-1.9-1.1-4-1.6l0,0c-0.5,0-1.3-0.5-1.9-0.5l0,0c-0.5-0.5-0.5-1.1-0.5-1.6
		c0-0.8,0.3-1.3,0.5-1.9l4-4c7.5-7.5,7.5-18.9,0-26.4C50.1,2.7,43.5,0,36,0c-8.3,0-16.8,3.7-23.2,9.9C6.7,16,3.5,23.7,3.5,32.3
		S7,48.8,12.8,54.7c5.9,6.1,13.9,9.3,22.4,9.3c8.3,0,16.3-3.5,22.4-9.3c1.3-1.3,2.1-3.2,2.1-5.1c0-2.1-0.8-4-2.1-5.3L56.8,44z
		 M53.6,50.9c-5.1,5.1-11.5,7.7-18.7,7.7S21.3,56,16.3,50.9c-5.1-4.8-7.7-11.5-7.7-18.4c0-7.2,2.7-13.6,7.7-18.7
		c5.3-5.3,12.5-8.3,19.5-8.3c6.1,0,11.5,2.1,15.5,6.1c5.3,5.3,5.3,13.6,0,18.9L47,34.8c-1.3,1.3-2.1,3.5-2.1,5.3
		c0,2.1,0.8,4,2.1,5.3s3.7,2.1,4.5,2.1c1.3,0.3,1.9,0.5,2.1,0.8c0.3,0.3,0.3,0.5,0.3,1.1C54.1,49.9,53.9,50.7,53.6,50.9z"/>
	<ellipse class="st0" cx="40" cy="32" rx="2.7" ry="2.7"/>
	<circle class="st0" cx="44" cy="22.7" r="4"/>
	<circle class="st0" cx="32" cy="16" r="5.3"/>
</g>
</svg>
