<?xml version="1.0" encoding="utf-8"?>
<!-- Generator: Adobe Illustrator 24.1.0, SVG Export Plug-In . SVG Version: 6.00 Build 0)  -->
<svg version="1.1" id="Layer_2_1_" xmlns="http://www.w3.org/2000/svg" xmlns:xlink="http://www.w3.org/1999/xlink" x="0px" y="0px"
	 viewBox="0 0 64 64" style="enable-background:new 0 0 64 64;" xml:space="preserve">
<style type="text/css">
	.st0{fill:#FCFCFC;}
	.st1{fill:#FFFFFF;}
	.st2{fill:#FFFAFA;}
</style>
<g>
	<path class="st0" d="M32,21.9c-3.5,0-6.4,2.9-6.4,6.1c0,2.4,1.6,4.5,3.7,5.6v19.7c0,1.6,1.1,2.7,2.7,2.7s2.7-1.1,2.7-2.7V33.9
		c2.1-1.1,3.7-3.2,3.7-5.6C38.4,24.8,35.5,21.9,32,21.9z M32,27.2c0.5,0,1.1,0.5,1.1,0.8s-0.5,0.8-1.1,0.8c-0.5,0-1.1-0.5-1.1-0.8
		S31.5,27.2,32,27.2z"/>
	<path class="st1" d="M24.5,18.9c-1.1-1.1-2.7-1.1-3.7,0c-2.4,2.4-3.5,5.3-3.5,8.5s1.3,6.4,3.5,8.8c0.5,0.5,1.3,0.8,1.9,0.8
		c0.8,0,1.3-0.3,1.9-0.8c1.1-1.1,1.1-2.7,0-3.7c-1.3-1.3-2.1-2.9-2.1-4.8s0.8-3.5,2.1-4.8C25.6,21.6,25.6,20,24.5,18.9z"/>
	<path class="st1" d="M43.2,18.9c-1.1-1.1-2.7-1.1-3.7,0c-1.1,1.1-1.1,2.7,0,3.7c1.3,1.3,2.1,2.9,2.1,4.8s-0.8,3.5-2.1,4.8
		c-1.1,1.1-1.1,2.7,0,3.7c0.5,0.5,1.3,0.8,1.9,0.8c0.8,0,1.3-0.3,1.9-0.8c2.4-2.4,3.5-5.3,3.5-8.8C46.9,24.3,45.6,21.1,43.2,18.9z"
		/>
	<path class="st0" d="M13.9,27.5c0-3.7,1.3-7.2,4-9.9c1.1-1.1,1.1-2.7,0-3.7c-1.1-1.1-2.7-1.1-3.7,0c-3.7,3.7-5.6,8.5-5.6,13.6
		s2.1,9.9,5.6,13.6c0.5,0.5,1.1,0.8,1.9,0.8s1.3-0.3,1.9-0.8c1.1-1.1,1.1-2.7,0-3.7C15.5,34.7,13.9,31.2,13.9,27.5z"/>
	<path class="st1" d="M49.9,13.9c-1.1-1.1-2.7-1.1-3.7,0s-1.1,2.7,0,3.7c2.7,2.7,4,6.1,4,9.9s-1.3,7.2-4,9.9c-1.1,1.1-1.1,2.7,0,3.7
		c0.5,0.5,1.3,0.8,1.9,0.8c0.8,0,1.3-0.3,1.9-0.8c3.7-3.7,5.6-8.5,5.6-13.6C55.5,22.4,53.3,17.3,49.9,13.9z"/>
	<path class="st1" d="M5.3,27.5c0-5.6,2.1-10.9,6.1-14.9c1.1-1.1,1.1-2.7,0-3.7s-2.7-1.1-3.7,0c-5,5-7.7,11.4-7.7,18.6
		s2.7,13.6,7.7,18.7C8.2,46.7,8.8,47,9.6,47c0.8,0,1.3-0.3,1.9-0.8c1.1-1.1,1.1-2.7,0-3.7C7.5,38.4,5.3,33.1,5.3,27.5z"/>
	<path class="st2" d="M56.3,8.8c-1.1-1.1-2.7-1.1-3.7,0s-1.1,2.7,0,3.7c4,4,6.1,9.3,6.1,14.9s-2.1,10.9-6.1,14.9
		c-1.1,1.1-1.1,2.7,0,3.7c0.5,0.5,1.3,0.8,1.9,0.8c0.8,0,1.3-0.3,1.9-0.8c5.1-5.1,7.7-11.7,7.7-18.7S61.3,13.9,56.3,8.8z"/>
</g>
</svg>
