<svg id="Layer_2" data-name="Layer 2" xmlns="http://www.w3.org/2000/svg" viewBox="0 0 55.05 64"><defs><style>.cls-1{fill:#6b63ff;}</style></defs><path class="cls-1" d="M25.3,64a1.55,1.55,0,0,1-1.1-.3,3.34,3.34,0,0,1-1.7-3.1l3.6-18.8a1.4,1.4,0,0,0-1.4-1.7H7.3a2.68,2.68,0,0,1-2.5-1.7,2.44,2.44,0,0,1,.3-2.8L30.9,1.2A3.93,3.93,0,0,1,33.5,0a1.14,1.14,0,0,1,.8.3A3.24,3.24,0,0,1,36,2.9V19.1a1.54,1.54,0,0,0,1.5,1.5H56.7a2.68,2.68,0,0,1,2.5,1.7,2.89,2.89,0,0,1-.3,3.1L27.5,63.2A3.29,3.29,0,0,1,25.3,64ZM14.6,32.3a1.45,1.45,0,0,0,1.2,2.3H29.7a2.53,2.53,0,0,1,2.2,1.1,2.26,2.26,0,0,1,.6,2.2l-1.4,7.6a1.47,1.47,0,0,0,2.6,1.2L48.8,28.5a1.46,1.46,0,0,0-1.1-2.4H31.8a1.54,1.54,0,0,1-1.5-1.5V15.7a1.45,1.45,0,0,0-2.6-.9Z" transform="translate(-4.47)"/></svg>